<svg class="icon" style="vertical-align: middle;fill: white;overflow: hidden;" viewBox="0 0 1024 1024" version="1.1" xmlns="http://www.w3.org/2000/svg" >
    <path d="M960 0H294.076632a64 64 0 0 0-64 64v128H64A64 64 0 0 0 0 256v704A64 64 0 0 0 64 1024H768a64 64 0 0 0 64-64V792.966737h128a64 64 0 0 0 64-64V64A64 64 0 0 0 960 0zM741.052632 728.966737V933.052632H90.947368V282.947368H741.052632v446.019369z m189.44-26.947369h-98.492632V256A64 64 0 0 0 768 192H321.024v-101.052632H933.052632l-2.56 611.072z"></path>
</svg>
